HIERARCHY
ROOT Hips
{
 OFFSET 0.000000 0.000000 0.000000
 CHANNELS 6 Xposition Yposition Zposition Yrotation Xrotation Zrotation
 JOINT Chest
 {
  OFFSET 0.000000 13.173100 -0.061900
  CHANNELS 3 Yrotation Xrotation Zrotation
  JOINT Chest2
  {
   OFFSET 0.000000 8.040800 0.126200
   CHANNELS 3 Yrotation Xrotation Zrotation
   JOINT Chest3
   {
    OFFSET 0.000000 7.994400 0.000000
    CHANNELS 3 Yrotation Xrotation Zrotation
    JOINT Chest4
    {
     OFFSET 0.000000 7.986200 0.000000
     CHANNELS 3 Yrotation Xrotation Zrotation
     JOINT Neck
     {
      OFFSET 0.000000 12.259400 0.000000
      CHANNELS 3 Yrotation Xrotation Zrotation
      JOINT Head
      {
       OFFSET 0.000000 7.518700 0.267100
       CHANNELS 3 Yrotation Xrotation Zrotation
       End Site
       {
        OFFSET 0.000000 13.617700 0.141000
       }
      }
     }
     JOINT RightCollar
     {
      OFFSET -2.983800 8.314300 0.000000
      CHANNELS 3 Yrotation Xrotation Zrotation
      JOINT RightShoulder
      {
       OFFSET -16.133400 0.000000 0.000000
       CHANNELS 3 Yrotation Xrotation Zrotation
       JOINT RightElbow
       {
        OFFSET 0.000000 -29.822100 0.000000
        CHANNELS 3 Yrotation Xrotation Zrotation
        JOINT RightWrist
        {
         OFFSET 0.000000 -24.437700 0.010900
         CHANNELS 3 Yrotation Xrotation Zrotation
         End Site
         {
          OFFSET 0.000000 -18.312300 0.000000
         }
        }
       }
      }
     }
     JOINT LeftCollar
     {
      OFFSET 2.983800 8.314300 0.000000
      CHANNELS 3 Yrotation Xrotation Zrotation
      JOINT LeftShoulder
      {
       OFFSET 16.133400 0.000000 0.000000
       CHANNELS 3 Yrotation Xrotation Zrotation
       JOINT LeftElbow
       {
        OFFSET 0.000000 -29.822100 0.000000
        CHANNELS 3 Yrotation Xrotation Zrotation
        JOINT LeftWrist
        {
         OFFSET 0.000000 -24.437700 0.010900
         CHANNELS 3 Yrotation Xrotation Zrotation
         End Site
         {
          OFFSET 0.000000 -18.312300 0.000000
         }
        }
       }
      }
     }
    }
   }
  }
 }
 JOINT RightHip
 {
  OFFSET -11.206700 0.306200 0.030900
  CHANNELS 3 Yrotation Xrotation Zrotation
  JOINT RightKnee
  {
   OFFSET 0.000000 -57.334900 0.009400
   CHANNELS 3 Yrotation Xrotation Zrotation
   JOINT RightAnkle
   {
    OFFSET 0.000000 -43.376200 0.036600
    CHANNELS 3 Yrotation Xrotation Zrotation
    JOINT RightToe
    {
     OFFSET 0.000000 -10.035500 18.363100
     CHANNELS 3 Yrotation Xrotation Zrotation
     End Site
     {
      OFFSET 0.000000 -1.618500 7.239000
     }
    }
   }
  }
 }
 JOINT LeftHip
 {
  OFFSET 11.206700 0.306200 0.030900
  CHANNELS 3 Yrotation Xrotation Zrotation
  JOINT LeftKnee
  {
   OFFSET 0.000000 -57.334900 0.009400
   CHANNELS 3 Yrotation Xrotation Zrotation
   JOINT LeftAnkle
   {
    OFFSET 0.000000 -43.376200 0.036600
    CHANNELS 3 Yrotation Xrotation Zrotation
    JOINT LeftToe
    {
     OFFSET 0.000000 -10.035500 18.363100
     CHANNELS 3 Yrotation Xrotation Zrotation
     End Site
     {
      OFFSET 0.000000 -1.618500 7.239000
     }
    }
   }
  }
 }
}
MOTION
Frames: 13
Frame Time: 0.008333
-77.464398 70.625135 53.947277 -169.566785 -32.510949 -11.260256 -3.710450 13.772009 6.058161 -2.612263 8.054737 1.532749 -3.253734 10.097525 1.866964 -2.618811 8.063228 1.534689 3.332563 23.390602 -1.645623 3.989841 -0.468111 -2.546837 6.057684 2.153579 -1.890050 -4.341225 -19.281286 -0.858887 58.869915 -46.120094 -41.030513 6.860787 -5.169804 -29.593317 -10.751077 -0.056056 -6.093992 -7.232640 -21.828988 3.165998 -54.210273 -28.617883 48.824027 2.385270 -4.587019 -0.926816 -25.162900 -25.902504 3.564489 63.264160 87.283268 61.071679 1.551781 -27.272187 -4.384143 -1.191654 2.567894 -0.638971 -14.280853 -43.618248 7.239742 178.986467 73.826072 177.099844 -2.531523 -24.803620 1.342975 -0.163593 -0.869416 -0.084793
-77.474840 70.624318 53.953949 -169.564866 -32.535986 -11.261757 -3.716263 13.792333 6.056966 -2.611689 8.068085 1.532765 -3.249213 10.118945 1.863660 -2.616391 8.078713 1.533442 3.312679 23.179009 -1.687120 3.975019 -0.721746 -2.585984 6.070145 2.137667 -1.881970 -4.445303 -19.251851 -0.838171 58.916916 -46.314443 -41.065598 6.967188 -5.137723 -29.751309 -10.745784 -0.064244 -6.106845 -7.207373 -21.810944 3.179407 -54.266525 -28.654007 48.884130 2.419599 -4.605878 -0.875151 -25.154648 -25.882237 3.547111 63.146273 87.273593 60.951506 1.550585 -27.270890 -4.383346 -1.193351 2.576100 -0.638610 -14.243996 -43.596896 7.220996 179.037536 73.831508 177.149983 -2.533834 -24.805474 1.364443 -0.161438 -0.864765 -0.082384
-77.488303 70.627821 53.953830 -169.574130 -32.589908 -11.247620 -3.706703 13.842429 6.044790 -2.611500 8.078793 1.531331 -3.245932 10.131052 1.861401 -2.615729 8.096091 1.529595 3.293615 22.959422 -1.729029 3.961153 -0.984128 -2.625593 6.076807 2.107443 -1.877107 -4.546583 -19.210316 -0.801976 58.927539 -46.519196 -41.058034 7.081835 -5.201832 -29.859001 -10.740748 -0.075648 -6.118546 -7.173444 -21.781059 3.186028 -54.291815 -28.729522 49.016017 2.409648 -4.616288 -0.911838 -25.124663 -25.843027 3.515481 63.034174 87.281119 60.826508 1.540222 -27.263685 -4.373935 -1.186857 2.571849 -0.632846 -14.178291 -43.544947 7.172086 179.033351 73.836840 177.149103 -2.538420 -24.805242 1.380467 -0.160584 -0.870216 -0.082524
-77.501692 70.627599 53.958855 -169.569131 -32.603175 -11.234544 -3.714052 13.855576 6.028077 -2.620303 8.101503 1.528589 -3.235378 10.115588 1.862497 -2.619345 8.118683 1.522282 3.276136 22.731833 -1.770914 3.948934 -1.255043 -2.665361 6.094272 2.098707 -1.863466 -4.627747 -19.198235 -0.776715 58.875235 -46.720622 -41.002150 7.201503 -5.348345 -29.906692 -10.737039 -0.088979 -6.126421 -7.129926 -21.739233 3.180610 -54.314149 -28.792441 49.124345 2.413444 -4.639682 -0.921932 -25.120462 -25.844255 3.496296 62.952144 87.294276 60.730870 1.532184 -27.254904 -4.362740 -1.178002 2.565208 -0.627055 -14.149783 -43.535965 7.134289 179.015826 73.845215 177.130888 -2.545241 -24.802192 1.389269 -0.157062 -0.869698 -0.082220
-77.514820 70.628370 53.961676 -169.578377 -32.619060 -11.212927 -3.716265 13.871508 6.008288 -2.615760 8.106767 1.524690 -3.234889 10.129575 1.860137 -2.616640 8.110333 1.524057 3.254763 22.501265 -1.816940 3.938317 -1.537726 -2.704903 6.107037 2.098388 -1.859431 -4.660415 -19.199623 -0.765533 58.751982 -46.895074 -40.906724 7.315658 -5.525037 -29.908803 -10.739629 -0.098196 -6.135541 -7.077281 -21.687576 3.161186 -54.332011 -28.844970 49.211685 2.390522 -4.663156 -0.943646 -25.090176 -25.847937 3.473449 62.937625 87.305744 60.711042 1.517611 -27.242828 -4.349119 -1.167846 2.554290 -0.621139 -14.108231 -43.524532 7.098157 179.004701 73.852615 177.114353 -2.551689 -24.797764 1.401567 -0.155818 -0.871964 -0.080803
-77.524063 70.629780 53.963087 -169.579984 -32.628308 -11.209149 -3.717331 13.880920 6.004170 -2.614648 8.112144 1.518672 -3.238080 10.138104 1.859961 -2.613445 8.106688 1.525406 3.232946 22.252006 -1.863506 3.928830 -1.834853 -2.742228 6.114428 2.092923 -1.859093 -4.744131 -19.164728 -0.712677 58.744892 -47.027400 -40.880092 7.411038 -5.686752 -29.887799 -10.742432 -0.117172 -6.143634 -7.027627 -21.629213 3.135463 -54.328171 -28.892379 49.282229 2.418258 -4.699567 -0.921253 -25.070991 -25.843929 3.466467 62.848184 87.306164 60.611674 1.509304 -27.236518 -4.327169 -1.171700 2.550496 -0.624707 -14.073804 -43.516271 7.089558 179.019063 73.855863 177.120598 -2.572508 -24.796999 1.430781 -0.155363 -0.871398 -0.076933
-77.531429 70.630737 53.964066 -169.580164 -32.627779 -11.209713 -3.716415 13.882973 6.000767 -2.617168 8.115819 1.515621 -3.237215 10.141215 1.857418 -2.614107 8.109516 1.523107 3.212431 21.982418 -1.899934 3.921563 -2.145474 -2.776602 6.110374 2.056394 -1.868488 -4.796299 -19.088432 -0.616275 58.778336 -47.087918 -40.914073 7.484674 -5.824179 -29.864439 -10.744114 -0.148081 -6.143884 -6.989408 -21.563393 3.112688 -54.301476 -28.938622 49.338071 2.446312 -4.731590 -0.910716 -25.063682 -25.844700 3.463405 62.785446 87.302555 60.546470 1.504647 -27.233695 -4.320032 -1.171279 2.550354 -0.624897 -14.071442 -43.516918 7.090371 179.031419 73.856479 177.125359 -2.572151 -24.793486 1.439100 -0.155075 -0.875976 -0.077465
-77.537167 70.631274 53.964333 -169.572869 -32.618221 -11.216585 -3.719342 13.880200 6.002841 -2.622111 8.113497 1.514328 -3.254650 10.146597 1.839471 -2.628233 8.107545 1.513465 3.227199 21.703578 -1.920147 3.917513 -2.466381 -2.808160 6.146510 2.045235 -1.849227 -4.800476 -19.075788 -0.597060 58.720815 -47.124798 -40.869537 7.540527 -5.935672 -29.848825 -10.714668 -0.181866 -6.132124 -6.957641 -21.491470 3.092264 -54.261416 -28.982161 49.380607 2.435527 -4.761707 -0.923114 -25.065969 -25.849594 3.466400 62.733612 87.297685 60.489081 1.504315 -27.233266 -4.309088 -1.179009 2.552382 -0.627297 -14.070840 -43.526723 7.092249 179.041130 73.856294 177.137305 -2.575563 -24.791253 1.442820 -0.153536 -0.879073 -0.074372
-77.545948 70.628553 53.967373 -169.552828 -32.582203 -11.209442 -3.745303 13.856335 5.980530 -2.624386 8.107742 1.516406 -3.268204 10.144808 1.827126 -2.629853 8.102020 1.512796 3.222967 21.422932 -1.949408 3.916241 -2.793534 -2.836725 6.154477 2.013347 -1.858554 -4.795120 -19.033323 -0.564331 58.668654 -47.135017 -40.821432 7.584187 -6.009427 -29.848829 -10.699993 -0.217997 -6.131988 -6.938181 -21.430089 3.084149 -54.201848 -29.012905 49.388236 2.391339 -4.794791 -0.941014 -25.048419 -25.894692 3.461147 62.817786 87.307707 60.576896 1.481477 -27.226708 -4.274310 -1.177652 2.540716 -0.627240 -14.086705 -43.567098 7.089416 179.080352 73.861106 177.158213 -2.583810 -24.780865 1.462432 -0.150628 -0.879596 -0.074866
-77.552731 70.628240 53.965742 -169.543360 -32.560855 -11.203716 -3.756472 13.849793 5.966813 -2.629584 8.102793 1.512567 -3.277788 10.132211 1.821641 -2.636292 8.094465 1.509261 3.221162 21.139972 -1.975561 3.916954 -3.121902 -2.862496 6.149318 1.927752 -1.890121 -4.775522 -18.974616 -0.501764 58.579235 -47.092306 -40.718344 7.610931 -6.045211 -29.835397 -10.679494 -0.226714 -6.127760 -6.921998 -21.390585 3.072163 -54.153467 -29.026630 49.386420 2.411585 -4.822358 -0.935407 -25.037488 -25.920325 3.458522 62.896208 87.313573 60.654317 1.463194 -27.223421 -4.252963 -1.167584 2.531638 -0.627621 -14.094634 -43.588354 7.086669 179.116677 73.862199 177.182146 -2.582447 -24.777604 1.474884 -0.152271 -0.881995 -0.076955
-77.559118 70.627681 53.963263 -169.528856 -32.531680 -11.198472 -3.773738 13.836519 5.948636 -2.642782 8.095961 1.498964 -3.270012 10.122881 1.834611 -2.654598 8.077038 1.498873 3.221964 20.858743 -1.998819 3.919885 -3.446817 -2.885629 6.153693 1.858710 -1.910963 -4.758804 -18.926641 -0.469820 58.472855 -47.051297 -40.585763 7.624810 -6.043072 -29.799032 -10.655834 -0.229901 -6.124087 -6.902748 -21.343496 3.049405 -54.149344 -29.025016 49.405160 2.454660 -4.817079 -0.912183 -25.043743 -25.951847 3.459407 62.994110 87.321784 60.743144 1.452762 -27.221738 -4.236062 -1.164473 2.523328 -0.624666 -14.112826 -43.616148 7.091632 179.151570 73.863675 177.197355 -2.590560 -24.775662 1.492654 -0.151563 -0.882386 -0.077950
-77.567185 70.626853 53.959776 -169.507391 -32.495683 -11.186826 -3.799853 13.814752 5.922265 -2.650072 8.084219 1.497268 -3.272399 10.118149 1.833862 -2.659496 8.070066 1.496435 3.208239 20.564962 -2.028137 3.926075 -3.763382 -2.906181 6.149072 1.786049 -1.935015 -4.749909 -18.903278 -0.443115 58.368850 -46.999625 -40.441036 7.639541 -5.983435 -29.738935 -10.657156 -0.348368 -6.136144 -6.856580 -21.202435 3.032364 -54.139978 -29.018067 49.410737 2.448868 -4.834255 -0.915390 -25.053711 -25.993938 3.452298 63.151482 87.337296 60.892617 1.441279 -27.220703 -4.221780 -1.155182 2.511968 -0.618207 -14.133057 -43.650267 7.086145 179.221380 73.867816 177.244719 -2.592649 -24.774667 1.510128 -0.148480 -0.879066 -0.078019
-77.576288 70.627445 53.953001 -169.486837 -32.465674 -11.170344 -3.821080 13.803539 5.887184 -2.656458 8.067022 1.506039 -3.291105 10.101586 1.819871 -2.653078 8.073157 1.499637 3.197242 20.272252 -2.056971 3.935225 -4.066827 -2.923602 6.144768 1.706169 -1.962160 -4.741399 -18.889074 -0.415121 58.281562 -46.950633 -40.314493 7.669205 -5.856230 -29.623814 -10.658106 -0.440788 -6.141645 -6.819207 -21.095353 3.020315 -54.111174 -28.997612 49.375794 2.446914 -4.862405 -0.895664 -25.051276 -26.032452 3.435245 63.344907 87.354129 61.085150 1.423357 -27.219922 -4.206156 -1.140124 2.497743 -0.610728 -14.143073 -43.679452 7.065863 179.228830 73.869945 177.235789 -2.601680 -24.768111 1.526775 -0.146628 -0.883040 -0.080733
